<?xml version="1.0" encoding="UTF-8"?>
<svg width="18px" height="17px" viewBox="0 0 18 17" version="1.1" xmlns="http://www.w3.org/2000/svg" xmlns:xlink="http://www.w3.org/1999/xlink">
    <!-- Generator: sketchtool 55.2 (78181) - https://sketchapp.com -->
    <title>86FB23A4-6393-40F9-A8A9-C9FFBADB5AD6</title>
    <desc>Created with sketchtool.</desc>
    <g id="freetrial-v2" stroke="none" stroke-width="1" fill="none" fill-rule="evenodd">
        <g id="checkout-copy-4-(1)" transform="translate(-19.000000, -200.000000)" fill="#99e265">
            <g id="Overlay" transform="translate(0.000000, -1.000000)">
                <g id="Sheet" transform="translate(0.000000, 174.500000)">
                    <path d="M28.5184971,26.7164491 L36.9145288,34.7333943 C37.0920467,34.8488355 36.9736991,35.1374431 36.7370146,35.1374431 L34.785833,35.1374431 L34.785833,42.7503222 C34.785833,43.154371 34.4307973,43.5 34.0173163,43.5 L30.7657678,43.5 C30.3515655,43.5 29.9972511,43.1536674 29.9972511,42.7503222 L29.9972511,39.0013173 C29.9972511,36.4059337 25.9764105,36.4059337 25.9764105,39.0013173 L25.9764105,42.7503222 C25.9764105,43.154371 25.6805594,43.5 25.2670604,43.5 L21.9563633,43.5 C21.542161,43.5 21.2470132,43.1536674 21.2470132,42.7503222 L21.2470132,35.1374431 L19.2366827,35.1374431 C19,35.1374431 18.9408317,34.8488443 19.0591685,34.7333943 L27.4552005,26.7164491 C27.7510516,26.4278503 28.2237172,26.4278503 28.5195683,26.7164491 L28.5184971,26.7164491 Z" id="house"></path>
                </g>
            </g>
        </g>
    </g>
</svg>