<?xml version="1.0" encoding="UTF-8"?>
<svg width="19px" height="12px" viewBox="0 0 19 12" version="1.1" xmlns="http://www.w3.org/2000/svg" xmlns:xlink="http://www.w3.org/1999/xlink">
    <!-- Generator: sketchtool 55.2 (78181) - https://sketchapp.com -->
    <title>A8EB1C52-4654-4D38-8A77-A53B46998E23</title>
    <desc>Created with sketchtool.</desc>
    <g id="freetrial-v2" stroke="none" stroke-width="1" fill="none" fill-rule="evenodd">
        <g id="checkout-copy-4-(1)" transform="translate(-19.000000, -251.000000)" fill="#99e265">
            <g id="Overlay" transform="translate(0.000000, -1.000000)">
                <g id="Sheet" transform="translate(0.000000, 174.500000)">
                    <path d="M20.3993226,77.5 C19.6279588,77.5 19,78.135635 19,78.9131248 L19,88.0895643 C19,88.8670541 19.6279588,89.5 20.3993226,89.5 L36.5980095,89.5 C37.3693733,89.5 38,88.864365 38,88.0895643 L38,78.9131248 C38,78.135635 37.3693733,77.5 36.5980095,77.5 L20.3993226,77.5 Z M36.2577958,81.6074024 L36.2577958,79.7390871 C36.2577958,79.6178853 36.162488,79.5218206 36.0422412,79.5218206 L31.897654,79.5218206 C31.7800796,79.5218206 31.6820994,79.6196803 31.6820994,79.7390871 L31.6820994,81.6074024 C31.6820994,81.7259106 31.779188,81.8246689 31.897654,81.8246689 L36.0422412,81.8246689 C36.1571454,81.8246689 36.2577958,81.7295029 36.2577958,81.6074024 Z M33.2027133,87.2707959 C33.0824664,87.2707959 32.9844862,87.1729362 32.9844862,87.0535294 L32.9844862,86.6198975 C32.9844862,86.5013894 33.0815748,86.402631 33.2027133,86.402631 L36.0395756,86.402631 C36.15715,86.402631 36.2551301,86.5004907 36.2551301,86.6198975 L36.2551301,87.0535294 C36.2551301,87.1720376 36.1580416,87.2707959 36.0395756,87.2707959 L33.2027133,87.2707959 Z M29.2425985,87.2707959 C29.1250241,87.2707959 29.0270439,87.1729362 29.0270439,87.0535294 L29.0270439,86.6216902 C29.0270439,86.5004884 29.1241325,86.4044238 29.2425985,86.4044238 L32.0821971,86.4044238 C32.1997715,86.4044238 32.2977517,86.5022834 32.2977517,86.6216902 L32.2977517,87.0535294 C32.2977517,87.1720376 32.2006631,87.2707959 32.0821971,87.2707959 L29.2425985,87.2707959 Z M25.28522,87.2707959 C25.1676456,87.2707959 25.0696654,87.1729362 25.0696654,87.0535294 L25.0696654,86.6216902 C25.0696654,86.5004884 25.166754,86.4044238 25.28522,86.4044238 L28.1248186,86.4044238 C28.242393,86.4044238 28.3403732,86.5022834 28.3403732,86.6216902 L28.3403732,87.0535294 C28.3403732,87.1720376 28.2432846,87.2707959 28.1248186,87.2707959 L25.28522,87.2707959 Z M21.3278415,87.2707959 C21.2102671,87.2707959 21.112287,87.1729362 21.112287,87.0535294 L21.112287,86.6216902 C21.112287,86.5004884 21.2093756,86.4044238 21.3278415,86.4044238 L24.1674402,86.4044238 C24.2850145,86.4044238 24.3829947,86.5022834 24.3829947,86.6216902 L24.3829947,87.0535294 C24.3829947,87.1720376 24.2859061,87.2707959 24.1674402,87.2707959 L21.3278415,87.2707959 Z" id="credit-card"></path>
                </g>
            </g>
        </g>
    </g>
</svg>