<?xml version="1.0" encoding="UTF-8"?>
<svg width="24px" height="24px" viewBox="0 0 24 24" version="1.1" xmlns="http://www.w3.org/2000/svg" xmlns:xlink="http://www.w3.org/1999/xlink">
    <!-- Generator: Sketch 52.3 (67297) - http://www.bohemiancoding.com/sketch -->
    <title>Group 3</title>
    <desc>Created with Sketch.</desc>
    <g id="Design" stroke="none" stroke-width="1" fill="none" fill-rule="evenodd">
        <g id="Pick-Photos-—-Facebook" transform="translate(-303.000000, -139.000000)" fill="#99e265">
            <g id="Group-3" transform="translate(303.000000, 139.000000)">
                <path d="M0.318295082,22.6063729 C0.318295082,23.1656949 0.756196721,23.6200678 1.2987541,23.6200678 L22.7091148,23.6200678 C23.2500984,23.6200678 23.6895738,23.167322 23.6895738,22.6063729 C23.6895738,22.0470508 23.2516721,21.592678 22.7091148,21.592678 L1.29718033,21.5943051 C0.756196721,21.5943051 0.318295082,22.0454237 0.318295082,22.6063729 Z" id="Fill-1"></path>
                <path d="M12,18.2623729 C12.5409836,18.2623729 12.980459,17.8092203 12.980459,17.2482712 L12.980459,3.63416949 L16.0111475,6.35755932 C16.1956721,6.52433898 16.4262295,6.60854237 16.6504918,6.60854237 C16.927082,6.60854237 17.1977705,6.48935593 17.3881967,6.25749153 C17.7450492,5.83484746 17.698623,5.19579661 17.2898361,4.82725424 L12.6330492,0.650033898 C12.6271475,0.650033898 12.6271475,0.643525424 12.6208525,0.643525424 C12.6086557,0.630915254 12.5980328,0.626033898 12.5870164,0.613423729 C12.5748197,0.600813559 12.5641967,0.595932203 12.5472787,0.583322034 C12.5346885,0.576813559 12.5240656,0.565830508 12.5134426,0.559322034 C12.5008525,0.552813559 12.4839344,0.541830508 12.4733115,0.535322034 C12.4611148,0.529220339 12.4504918,0.522711864 12.4335738,0.511728814 C12.4209836,0.505220339 12.4040656,0.499118644 12.3934426,0.487728814 C12.3812459,0.481627119 12.3643279,0.475118644 12.3533115,0.470237288 C12.3363934,0.464135593 12.3241967,0.457627119 12.3072787,0.452745763 C12.295082,0.446644068 12.2781639,0.440135593 12.267541,0.440135593 C12.250623,0.433627119 12.2380328,0.433627119 12.2211148,0.427525424 C12.208918,0.421016949 12.192,0.421016949 12.181377,0.414915254 C12.164459,0.40840678 12.147541,0.40840678 12.1227541,0.40840678 C12.1105574,0.40840678 12.0999344,0.401898305 12.0893115,0.401898305 C12.0259672,0.39579661 11.9630164,0.39579661 11.9047869,0.401898305 C11.8925902,0.401898305 11.8815738,0.40840678 11.8709508,0.40840678 C11.8540328,0.40840678 11.8371148,0.414915254 11.8123279,0.414915254 C11.8001311,0.414915254 11.7832131,0.421016949 11.7725902,0.427525424 C11.7556721,0.433627119 11.7434754,0.433627119 11.7265574,0.440135593 C11.7139672,0.446644068 11.6970492,0.452745763 11.6864262,0.452745763 C11.6695082,0.459254237 11.6573115,0.465762712 11.6403934,0.470237288 C11.6281967,0.476745763 11.6112787,0.483254237 11.6002623,0.487728814 C11.5833443,0.494237288 11.5711475,0.500338983 11.5605246,0.511728814 C11.5483279,0.517830508 11.5314098,0.524338983 11.5203934,0.535322034 C11.5081967,0.541830508 11.4912787,0.552813559 11.4806557,0.559322034 C11.4680656,0.565830508 11.4574426,0.576813559 11.4468197,0.583322034 C11.4342295,0.595932203 11.4236066,0.600813559 11.4066885,0.613423729 C11.3944918,0.626033898 11.3838689,0.630915254 11.3728525,0.643525424 C11.3669508,0.643525424 11.3669508,0.650033898 11.3606557,0.650033898 L6.70386885,4.82725424 C6.29508197,5.19579661 6.25495082,5.83484746 6.6055082,6.25749153 C6.96196721,6.68013559 7.58006557,6.72772881 7.98885246,6.35918644 L11.019541,3.63579661 L11.019541,17.2454237 C11.019541,17.8031186 11.4590164,18.2623729 12,18.2623729 Z" id="Fill-2"></path>
            </g>
        </g>
    </g>
</svg>